# xmcd CD database file
#
# Track frame offsets:
#	150
#	19322
#	36983
#	58945
#	80875
#	108613
#	125135
#	146627
#	168128
#	188407
#	202484
#	217255
#
# Disc length: 3205 seconds
#
# Revision: 0
# Processed by: cddbd v1.5.2PL0 Copyright (c) Steve Scherf et al.
# Submitted via: CDex 1.70beta2
#
DISCID=c40c830c
DTITLE=Just Friends - Stress Pass
DYEAR=2004
DGENRE=Jazz
TTITLE0=All of Me
TTITLE1=Good Rockin' Daddy
TTITLE2=Tell Me I'm Your Man
TTITLE3=Hold On, I'm Comin'
TTITLE4=Killer Joe
TTITLE5=Show Me
TTITLE6=They Can't Take That Away From Me
TTITLE7=The Crush
TTITLE8=Our Love Is Here To Stay
TTITLE9=Walkin' The Dog
TTITLE10=The Old Green River
TTITLE11=What'll I Do
EXTD=YEAR: 2004
EXTT0=
EXTT1=
EXTT2=
EXTT3=
EXTT4=
EXTT5=
EXTT6=
EXTT7=
EXTT8=
EXTT9=
EXTT10=
EXTT11=
PLAYORDER=
